{"title":"Looper(2012)MP-4[DaScubaDude]","uid":12528716,"size":1347304592,"categoryP":"video","categoryS":"movies","magnet":"?xt=urn:btih:187d71c46b9304ca09c5f825c5b5a629a6a78459&amp;dn=Looper%282012%29MP-4%5BDaScubaDude%5D&amp;tr=udp%3A%2F%2Ftracker.leechers-paradise.org%3A6969&amp;tr=udp%3A%2F%2Fzer0day.ch%3A1337&amp;tr=udp%3A%2F%2Fopen.demonii.com%3A1337&amp;tr=udp%3A%2F%2Ftracker.coppersurfer.tk%3A6969&amp;tr=udp%3A%2F%2Fexodus.desync.com%3A6969","seeders":0,"leechers":1,"uploader":"dascuba","files":1,"time":1444192003,"description":"Looper (2012)\r\nR  |  119 min  |  Action, Crime, Sci-Fi  |  28 September 2012 (USA)\r\n7.5 Your rating:   -/10   Ratings: 7.5/10 from 394,913 users   Metascore: 84/100 \r\nReviews: 655 user | 583 critic | 44 from Metacritic.com\r\nIn 2074, when the mob wants to get rid of someone, the target is sent into the past, where a hired gun awaits - someone like Joe - who one day learns the mob wants to 'close the loop' by sending back Joe's future self for assassination.\r\n\r\nDirector: Rian Johnson\r\nWriter: Rian Johnson\r\nStars: Joseph Gordon-Levitt, Bruce Willis, Emily Blunt\r\n\r\n General\r\nComplete name                            : C:LooperLooper_Title1.mp4\r\nFormat                                   : MPEG-4\r\nFormat profile                           : Base Media\r\nCodec ID                                 : isom\r\nFile size                                : 1.25 GiB\r\nDuration                                 : 1h 58mn\r\nOverall bit rate mode                    : Constant\r\nOverall bit rate                         : 1 513 Kbps\r\nMovie name                               : Looper_Title1\r\nWriting application                      : Lavf54.6.100\r\n\r\nVideo\r\nID                                       : 1\r\nFormat                                   : MPEG-4 Visual\r\nFormat settings, BVOP                    : No\r\nFormat settings, QPel                    : No\r\nFormat settings, GMC                     : No warppoints\r\nFormat settings, Matrix                  : Default (H.263)\r\nCodec ID                                 : 20\r\nDuration                                 : 1h 58mn\r\nBit rate mode                            : Constant\r\nBit rate                                 : 1 379 Kbps\r\nWidth                                    : 720 pixels\r\nHeight                                   : 404 pixels\r\nDisplay aspect ratio                     : 16:9\r\nFrame rate mode                          : Constant\r\nFrame rate                               : 29.970 fps\r\nColor space                              : YUV\r\nChroma subsampling                       : 4:2:0\r\nBit depth                                : 8 bits\r\nScan type                                : Progressive\r\nCompression mode                         : Lossy\r\nBits/(Pixel*Frame)                       : 0.158\r\nStream size                              : 1.14 GiB (91%)\r\nWriting library                          : Lavc54.23.100\r\n\r\nAudio\r\nID                                       : 2\r\nFormat                                   : MPEG Audio\r\nFormat version                           : Version 1\r\nFormat profile                           : Layer 3\r\nCodec ID                                 : 6B\r\nDuration                                 : 1h 58mn\r\nBit rate mode                            : Constant\r\nBit rate                                 : 128 Kbps\r\nChannel(s)                               : 2 channels\r\nSampling rate                            : 44.1 KHz\r\nCompression mode                         : Lossy\r\nStream size                              : 109 MiB (8%)\r\nWriting library                          : LAME3.99.5","torrent":{"xt":"urn:btih:187d71c46b9304ca09c5f825c5b5a629a6a78459","amp;dn":"Looper%282012%29MP-4%5BDaScubaDude%5D","amp;tr":["udp%3A%2F%2Ftracker.leechers-paradise.org%3A6969","udp%3A%2F%2Fzer0day.ch%3A1337","udp%3A%2F%2Fopen.demonii.com%3A1337","udp%3A%2F%2Ftracker.coppersurfer.tk%3A6969","udp%3A%2F%2Fexodus.desync.com%3A6969"],"infoHash":"187d71c46b9304ca09c5f825c5b5a629a6a78459","infoHashBuffer":{"type":"Buffer","data":[24,125,113,196,107,147,4,202,9,197,248,37,197,181,166,41,166,167,132,89]},"announce":[],"urlList":[]}}